<?xml version="1.0" encoding="UTF-8" standalone="no"?>
<!-- Created with Inkscape (http://www.inkscape.org/) -->

<svg
   width="967.26758mm"
   height="753.46606mm"
   viewBox="0 0 967.26758 753.46606"
   version="1.1"
   id="svg5"
   xml:space="preserve"
   inkscape:version="1.2 (1:1.2+202206011327+fc4e4096c5)"
   sodipodi:docname="connorheadshot.svg"
   xmlns:inkscape="http://www.inkscape.org/namespaces/inkscape"
   xmlns:sodipodi="http://sodipodi.sourceforge.net/DTD/sodipodi-0.dtd"
   xmlns="http://www.w3.org/2000/svg"
   xmlns:svg="http://www.w3.org/2000/svg"><sodipodi:namedview
     id="namedview7"
     pagecolor="#ffffff"
     bordercolor="#666666"
     borderopacity="1.0"
     inkscape:showpageshadow="2"
     inkscape:pageopacity="0.0"
     inkscape:pagecheckerboard="0"
     inkscape:deskcolor="#d1d1d1"
     inkscape:document-units="mm"
     showgrid="false"
     inkscape:zoom="0.069134618"
     inkscape:cx="1996.1056"
     inkscape:cy="-556.88454"
     inkscape:window-width="1920"
     inkscape:window-height="1055"
     inkscape:window-x="0"
     inkscape:window-y="0"
     inkscape:window-maximized="1"
     inkscape:current-layer="layer1" /><defs
     id="defs2" /><g
     inkscape:label="Layer 1"
     inkscape:groupmode="layer"
     id="layer1"
     transform="translate(471.07725,119.10756)"><ellipse
       style="opacity:1;fill:#b98a96;fill-opacity:1;stroke:#ffffff;stroke-width:0;stroke-dasharray:none;stroke-opacity:0.284846"
       id="ellipse2658"
       cx="-150.95734"
       cy="217.34839"
       rx="584.87085"
       ry="147.0732"
       transform="matrix(-0.81691348,-0.57676023,-0.50960839,0.86040647,0,0)"
       inkscape:export-filename="connorpolygonheadshot1.svg"
       inkscape:export-xdpi="96"
       inkscape:export-ydpi="96" /><ellipse
       style="opacity:1;fill:#8ab996;fill-opacity:1;stroke:#ffffff;stroke-width:0;stroke-dasharray:none;stroke-opacity:0.284846"
       id="path227567"
       cx="-105.4232"
       cy="270.78326"
       rx="407.22815"
       ry="146.38229"
       transform="matrix(0.81258515,-0.58284249,0.50681267,0.86205621,0,0)"
       inkscape:export-filename="Desktop/connorpolygonheadshot1.png"
       inkscape:export-xdpi="96"
       inkscape:export-ydpi="96" /><path
       style="opacity:1;fill:#4a3e33;fill-opacity:1;stroke:#000000;stroke-width:0.33442px;stroke-linecap:butt;stroke-linejoin:miter;stroke-opacity:1"
       d="m -82.835108,163.92832 -19.747952,-10.69966 -2.92114,12.8945 -16.17356,-82.156584 23.461712,-75.2173798 -1.54336,-20.3671502 40.33866,-41.12886 95.69523,-58.768536 64.115168,5.05675 -91.9168783,39.894996 79.2662703,-11.41356 -53.61962,39.34407 63.11285,72.64264 L 7.5807517,-8.9057238 33.805362,30.637436 -43.100198,3.5470162 l -21.53221,43.6105798 -6.76201,43.37838 z"
       id="path302"
       sodipodi:nodetypes="ccccccccccccccccccc" /><path
       style="opacity:1;fill:#151112;fill-opacity:1;stroke:#000000;stroke-width:0.33442px;stroke-linecap:butt;stroke-linejoin:miter;stroke-opacity:1"
       d="m 100.38965,-106.4586 29.19587,26.039386 34.23007,21.03283 12.68326,19.01774 31.5764,19.9905 21.78468,47.61567 17.98784,51.0128 h -8.80783 l -2.59928,32.745794 -5.41201,2.79034 -6.35689,26.44958 -1.86378,-4.14747 -13.03781,41.32922 -12.26871,-110.929444 -28.85154,-27.7528 -11.95323,-11.49802 -4.53041,9.97783 -11.56494,-18.63954 5.14681,23.64557 -28.34574,-39.4595898 -30.487828,-8.69631 4.0341,10.80772 -25.27285,-7.18498 -31.55641,-36.3213202 53.61962,-39.34407 -79.2662703,11.41356 z"
       id="path859"
       sodipodi:nodetypes="ccccccccccccccccccccccccccc" /><path
       style="opacity:1;fill:#e3b9a8;fill-opacity:1;stroke:#000000;stroke-width:0.33442px;stroke-linecap:butt;stroke-linejoin:miter;stroke-opacity:1"
       d="m -43.100198,3.5470162 -21.53221,43.6105798 -18.2027,116.770724 3.41848,43.88797 11.29916,46.60943 76.5189097,34.36113 16.6295203,-61.90743 -2.63888,-14.82796 14.37632,-21.02744 -0.855,-31.51004 -8.9124,-15.81019 -33.5974103,11.64157 -28.8325397,-6.04603 -9.54177,-11.37471 -5.25285,-18.63808 -14.06487,0.64432 4.99505,-15.55957 48.89526,-20.894544 5.7507197,-66.38451 z"
       id="path861" /><path
       style="opacity:1;fill:#c4927b;fill-opacity:1;stroke:#000000;stroke-width:0.33442px;stroke-linecap:butt;stroke-linejoin:miter;stroke-opacity:1"
       d="M -4.6474083,17.092236 33.805362,30.637436 7.5807517,-8.9057238 97.232252,34.009546 65.675832,-2.3117738 l 25.27285,7.18498 -4.0341,-10.80772 30.487828,8.69631 28.34574,39.4595898 -5.14681,-23.64557 11.56494,18.63954 4.53041,-9.97783 40.80477,39.25082 12.26871,110.929444 -25.50302,-75.48646 -34.13968,-18.875024 -42.95424,-6.39269 -21.934718,1.58671 -0.29162,24.524864 -15.95475,10.73591 -46.71401,-27.865794 -32.67626,-2.16856 z"
       id="path863"
       sodipodi:nodetypes="ccccccccccccccccccccccc" /><path
       style="opacity:1;fill:#80625e;fill-opacity:1;stroke:#000000;stroke-width:0.33442px;stroke-linecap:butt;stroke-linejoin:miter;stroke-opacity:1"
       d="m -64.288438,119.93086 4.99505,-15.55957 48.89526,-20.894544 32.67626,2.16856 9.65346,21.136804 -38.5280003,-4.07213 -16.4367497,0.41509 -27.19041,16.16147 z"
       id="path865" /><path
       style="opacity:1;fill:#d6ab9b;fill-opacity:1;stroke:#000000;stroke-width:0.33442px;stroke-linecap:butt;stroke-linejoin:miter;stroke-opacity:1"
       d="m 22.278132,85.645306 22.89497,48.339764 -9.2597,25.52891 0.855,31.51004 -14.37632,21.02744 2.63888,14.82796 v 0 l 7.17582,11.494 -7.17582,-11.494 15.50403,-1.1021 13.23392,8.88246 12.79993,1.23444 7.32074,-11.03357 12.27516,-14.27559 3.62093,-13.80049 -19.0081,-19.36678 -0.26593,-20.39436 -4.01561,-19.30863 2.49611,-24.2037 z"
       id="path867" /><path
       style="opacity:1;fill:#dbc9c1;fill-opacity:1;stroke:#000000;stroke-width:0;stroke-linecap:butt;stroke-linejoin:miter;stroke-dasharray:none;stroke-opacity:1"
       d="m -40.199828,143.61197 29.61646,-13.71235 37.58437,13.80417 -33.5974103,11.64157 -28.8325397,-6.04603 z"
       id="path869" /><path
       style="opacity:1;fill:#cc9d94;fill-opacity:1;stroke:#000000;stroke-width:0.33442px;stroke-linecap:butt;stroke-linejoin:miter;stroke-opacity:1"
       d="m -40.199828,143.61197 -4.77089,-5.68735 15.33915,-12.79922 23.1422797,-8.93658 28.3781803,3.91596 23.28421,13.88029 -18.1721,9.71872 -37.58437,-13.80417 z"
       id="path871" /><path
       style="opacity:1;fill:#cfa79b;fill-opacity:1;stroke:#000000;stroke-width:0.33442px;stroke-linecap:butt;stroke-linejoin:miter;stroke-opacity:1"
       d="m 27.001002,143.70379 8.9124,15.81019 9.2597,-25.52891 z"
       id="path873" /><path
       style="opacity:1;fill:#bc9188;fill-opacity:1;stroke:#000000;stroke-width:0.33442px;stroke-linecap:butt;stroke-linejoin:miter;stroke-opacity:1"
       d="m -50.223568,119.28654 5.25285,18.63808 15.33915,-12.79922 23.1422797,-8.93658 28.3781803,3.91596 23.28421,13.88029 -13.24151,-27.20296 -38.5280003,-4.07213 -16.4367497,0.41509 z"
       id="path875" /><path
       style="opacity:1;fill:#614747;fill-opacity:1;stroke:#000000;stroke-width:0.33442px;stroke-linecap:butt;stroke-linejoin:miter;stroke-opacity:1"
       d="m 85.238512,78.250326 -0.29162,24.524864 62.646858,-6.053424 42.35964,23.383014 -5.68624,-18.17345 -34.13968,-18.875024 -42.95424,-6.39269 z"
       id="path877" /><path
       style="opacity:1;fill:#b89181;fill-opacity:1;stroke:#000000;stroke-width:0.33442px;stroke-linecap:butt;stroke-linejoin:miter;stroke-opacity:1"
       d="m 68.992142,113.5111 -2.49611,24.2037 23.47866,0.50543 23.514538,-25.87976 35.94319,8.11157 22.71812,17.76819 24.8681,1.45432 -7.06525,-19.56977 -42.35964,-23.383014 -62.646858,6.053424 z"
       id="path879" /><path
       style="opacity:1;fill:#bb9282;fill-opacity:1;stroke:#000000;stroke-width:0.33442px;stroke-linecap:butt;stroke-linejoin:miter;stroke-opacity:1"
       d="m 89.974692,138.22023 23.514538,-25.87976 35.94319,8.11157 22.71812,17.76819 -12.56669,5.66329 -30.81989,-15.74927 z"
       id="path881" /><path
       style="opacity:1;fill:#dbc9c1;fill-opacity:1;stroke:#000000;stroke-width:0;stroke-linecap:butt;stroke-linejoin:miter;stroke-dasharray:none;stroke-opacity:1"
       d="m 89.974692,138.22023 38.269118,17.29449 31.34004,-11.6312 -30.81989,-15.74927 z"
       id="path883" /><path
       style="opacity:1;fill:#a97669;fill-opacity:1;stroke:#000000;stroke-width:0.33442px;stroke-linecap:butt;stroke-linejoin:miter;stroke-opacity:1"
       d="m 66.496032,137.7148 4.01561,19.30863 0.26593,20.39436 19.0081,19.36678 -3.62093,13.80049 -12.27516,14.27559 v 0 l 10.5811,-0.34725 2.80096,4.77524 -5.90832,2.39345 -5.68363,2.99702 2.57572,3.77742 h 7.61805 l 9.66521,-4.60966 10.485348,-7.33443 -0.80958,-11.03743 -5.535718,-6.27612 -6.34967,-12.80984 -8.95477,-13.67693 -6.82964,-5.29433 -1.01647,-23.3401 z"
       id="path885" /><path
       style="opacity:1;fill:#e6b7a7;fill-opacity:1;stroke:#000000;stroke-width:0.33442px;stroke-linecap:butt;stroke-linejoin:miter;stroke-opacity:1"
       d="m 66.496032,137.7148 10.03214,16.36289 1.01647,23.3401 6.82964,5.29433 15.30444,26.48677 63.474488,-13.07119 2.268,-16.87838 44.34896,-1.83153 -12.75153,-37.74324 -24.8681,-1.45432 -43.90673,17.29449 -38.269118,-17.29449 z"
       id="path887" /><path
       style="opacity:1;fill:#f1bdaf;fill-opacity:1;stroke:#000000;stroke-width:0.33442px;stroke-linecap:butt;stroke-linejoin:miter;stroke-opacity:1"
       d="m 99.678722,209.19889 5.535718,6.27612 0.80958,11.03743 -20.150558,11.94409 38.864448,37.13561 56.0329,23.37361 12.95481,-37.79728 3.53853,-35.05467 12.50602,-48.69601 -44.34896,1.83153 -2.268,16.87838 z"
       id="path889" /><path
       style="opacity:1;fill:#aa857c;fill-opacity:1;stroke:#000000;stroke-width:0.33442px;stroke-linecap:butt;stroke-linejoin:miter;stroke-opacity:1"
       d="m 222.80798,136.08857 1.86378,4.14747 v 0 l 5.90208,5.94434 -2.97021,19.97703 -1.14544,1.86575 1.91395,22.43015 -2.64426,18.93061 0.85378,8.23683 -16.57945,15.38607 -6.00354,-1.63356 -6.73452,-5.25946 12.50602,-48.69601 z"
       id="path891" /><path
       style="opacity:1;fill:#aa857c;fill-opacity:1;stroke:#000000;stroke-width:0.33442px;stroke-linecap:butt;stroke-linejoin:miter;stroke-opacity:1"
       d="m -102.58306,153.22866 -2.92114,12.8945 6.417252,11.34441 3.29085,40.49899 -2.85091,12.19023 9.72507,14.32069 20.80447,9.94824 v 0 l -11.29916,-46.60943 -3.41848,-43.88797 z"
       id="path893" /><path
       style="opacity:1;fill:#6e3233;fill-opacity:1;stroke:#000000;stroke-width:0.33442px;stroke-linecap:butt;stroke-linejoin:miter;stroke-opacity:1"
       d="m 32.206782,238.37342 21.56213,-3.71364 -13.23392,-8.88246 -15.50403,1.1021 z"
       id="path895" /><path
       style="opacity:1;fill:#3e1822;fill-opacity:1;stroke:#000000;stroke-width:0.33442px;stroke-linecap:butt;stroke-linejoin:miter;stroke-opacity:1"
       d="m 73.889582,224.86065 10.5811,-0.34725 2.80096,4.77524 -11.59195,5.39047 2.57572,3.77742 -11.68657,-2.56231 z"
       id="path897" /><path
       style="opacity:1;fill:#daaaa3;fill-opacity:1;stroke:#000000;stroke-width:0.33442px;stroke-linecap:butt;stroke-linejoin:miter;stroke-opacity:1"
       d="m 25.030962,226.87942 -8.31476,30.95371 12.37979,3.33534 25.10586,-3.00855 12.12585,-16.86186 47.540778,31.73576 10.86943,2.55832 -38.864448,-37.13561 h -7.61805 l -11.68657,-2.56231 -12.79993,-1.23444 -21.56213,3.71364 z"
       id="path899" /><path
       style="opacity:1;fill:#f2c7b4;fill-opacity:1;stroke:#000000;stroke-width:0.33442px;stroke-linecap:butt;stroke-linejoin:miter;stroke-opacity:1"
       d="m 66.327702,241.29806 -12.12585,16.86186 -25.10586,3.00855 -12.37979,-3.33534 -8.3147603,30.95372 36.7716603,-19.23572 10.75867,-1.65588 10.26178,2.85861 8.14172,-3.93647 11.26481,-1.09937 14.07864,5.84381 11.692108,4.32861 13.36708,-0.2983 -10.86943,-2.55832 z"
       id="path901" /><path
       style="opacity:1;fill:#c18380;fill-opacity:1;stroke:#000000;stroke-width:0.33442px;stroke-linecap:butt;stroke-linejoin:miter;stroke-opacity:1"
       d="m 8.4014417,288.78685 17.7289703,-0.82225 22.51691,-6.3441 17.81091,2.9491 24.81983,-4.00699 11.127568,3.22077 17.08722,-2.11063 5.24506,-6.08061 -13.36708,0.2983 -25.770748,-10.17242 -11.26481,1.09937 -8.14172,3.93647 -10.26178,-2.85861 -10.75867,1.65588 z"
       id="path903" /><path
       style="opacity:1;fill:#cc7e84;fill-opacity:1;stroke:#000000;stroke-width:0.33442px;stroke-linecap:butt;stroke-linejoin:miter;stroke-opacity:1"
       d="m 8.4014417,288.78685 10.0877203,8.17715 29.1025,10.03239 21.56699,0.23483 23.20515,-2.30867 16.547468,-5.73525 8.26872,-10.07623 4.93538,-10.47864 -2.62252,3.04032 -17.08722,2.11063 -11.127568,-3.22077 -24.81983,4.00699 -17.81091,-2.9491 -22.51691,6.3441 z"
       id="path905" /><path
       style="opacity:1;fill:#c19882;fill-opacity:1;stroke:#000000;stroke-width:0.33442px;stroke-linecap:butt;stroke-linejoin:miter;stroke-opacity:1"
       d="m 124.73791,275.59214 -3.9338,4.56044 -3.62412,8.95849 -8.26872,10.07623 -16.547468,5.73525 -6.76372,20.55116 -25.91812,20.64022 -11.78968,33.4498 26.81841,2.0952 33.685018,-9.07272 34.81965,-26.74561 21.0166,-17.48247 16.53885,-29.39238 z"
       id="path907" /><path
       style="opacity:1;fill:#bd8e7b;fill-opacity:1;stroke:#000000;stroke-width:0.33442px;stroke-linecap:butt;stroke-linejoin:miter;stroke-opacity:1"
       d="m -68.117468,254.42572 2.26177,17.14205 5.94308,21.39395 11.47233,18.07864 14.96593,17.56811 16.37549,16.70899 20.3289397,14.26954 18.6588203,11.74688 26.00339,8.22985 11.78968,-33.4498 25.91812,-20.64022 6.76372,-20.55116 -23.20515,2.30867 -21.56699,-0.23483 -29.1025,-10.03239 -10.0877203,-8.17715 z"
       id="path909" /><path
       style="opacity:1;fill:#ac8573;fill-opacity:1;stroke:#000000;stroke-width:0.33442px;stroke-linecap:butt;stroke-linejoin:miter;stroke-opacity:1"
       d="m -40.957318,319.82441 -3.76144,35.20425 -1.75083,10.82767 4.83561,25.82776 11.67884,28.65971 10.17887,14.82123 23.5028797,16.90301 30.6029503,22.00928 7.55521,-4.72631 9.74481,1.7824 2.57227,-2.60205 -24.67654,-50.3081 18.36697,-38.65953 -26.00339,-8.22985 L 3.2300717,359.587 -17.098868,345.31746 Z"
       id="path911"
       sodipodi:nodetypes="ccccccccccccccccc" /><path
       style="opacity:1;fill:#775147;fill-opacity:1;stroke:#000000;stroke-width:0.33442px;stroke-linecap:butt;stroke-linejoin:miter;stroke-opacity:1"
       d="m 29.525312,418.22326 18.36697,-38.65953 26.81841,2.0952 33.685018,-9.07272 55.83625,-44.22808 -1.37376,34.45887 -10.65017,22.99438 -14.11014,24.24386 -31.89616,27.21177 -18.692168,18.59575 -33.30771,12.6686 z"
       id="path913" /><path
       style="opacity:1;fill:#30505d;fill-opacity:1;stroke:#000000;stroke-width:0.33442px;stroke-linecap:butt;stroke-linejoin:miter;stroke-opacity:1"
       d="m -40.957318,319.82441 -10.04702,8.78406 -0.79666,5.64392 -4.23512,6.76373 -3.45689,14.23477 -13.15174,19.22903 0.64353,12.61123 -7.43297,21.94584 42.13877,110.01698 9.49333,7.61426 10.36893,-4.17146 6.59689,-5.17225 25.68539,-17.27722 9.08006,-10.33982 13.85525,-11.82166 -3.45487,-3.8085 -54.10583,-38.91229 -10.17887,-14.82123 -11.67884,-28.65971 -4.83561,-25.82776 z"
       id="path915"
       sodipodi:nodetypes="ccccccccccccccccccccc" /><path
       style="opacity:1;fill:#151112;fill-opacity:1;stroke:#000000;stroke-width:0.33442px;stroke-linecap:butt;stroke-linejoin:miter;stroke-opacity:1"
       d="m 37.784432,477.88582 23.82845,0.95037 -7.41103,-10.30483 -2.57227,2.60205 -9.74481,-1.7824 -7.55521,4.72631 z"
       id="path917" /><path
       style="opacity:1;fill:#304f56;fill-opacity:1;stroke:#000000;stroke-width:0.33442px;stroke-linecap:butt;stroke-linejoin:miter;stroke-opacity:1"
       d="m 54.201852,468.53136 7.41103,10.30483 30.99252,22.54588 17.762838,2.89616 19.21728,-11.77169 v -3.43457 l 9.20685,6.46201 31.77894,-43.50436 7.98209,-6.62783 15.7836,-36.47699 -13.32752,-45.27498 -5.51435,-19.57087 -11.26317,-15.72082 -1.37376,34.45887 -17.70525,35.11632 -7.05506,12.12192 -31.89616,27.21177 -9.346078,9.29787 -9.34609,9.29788 z"
       id="path919" /><path
       style="opacity:1;fill:#443930;fill-opacity:1;stroke:#000000;stroke-width:0.33442px;stroke-linecap:butt;stroke-linejoin:miter;stroke-opacity:1"
       d="m 36.274482,-111.51535 64.115168,5.05675 -41.821958,-9.92595 8.61476,-2.55623 -23.95935,1.73497 z"
       id="path117510" /><path
       style="opacity:1;fill:#796254;fill-opacity:1;stroke:#000000;stroke-width:0.33442px;stroke-linecap:butt;stroke-linejoin:miter;stroke-opacity:1"
       d="m -10.583368,129.89962 -8.02214,6.24789 -0.21263,5.18655 2.65971,6.28221 5.57506,3.86415 6.9527197,0.13958 5.72408,-2.5615 3.09815,-4.08428 0.0651,-5.35933 -0.88217,-4.22149 -2.26952,-0.83355 -10.37674,-3.81122 z"
       id="path117512" /><path
       style="opacity:1;fill:#151112;fill-opacity:1;stroke:#000000;stroke-width:0.33442px;stroke-linecap:butt;stroke-linejoin:miter;stroke-opacity:1"
       d="m -8.6638383,134.94243 -2.5769697,0.7374 -1.05099,3.25774 1.01117,2.75222 2.1047897,2.7761 4.83282,0.13477 1.91764,-0.71714 v -3.13498 h 1.4033 l 0.57902999,-3.70001 -2.46309999,-2.45303 -3.69026,-0.27897 z"
       id="path117514" /><path
       style="opacity:1;fill:#dbc9c1;fill-opacity:1;stroke:#000000;stroke-width:0.33442px;stroke-linecap:butt;stroke-linejoin:miter;stroke-opacity:1"
       d="m -7.6014183,138.22023 -1.1803,0.85655 -3.5100797,-0.13921 1.05099,-3.25774 1.2884797,-0.3687 1.42968,0.64632 1.2788,0.93178 0.64744,0.88597 z"
       id="path117516" /><path
       style="opacity:1;fill:#dbc9c1;fill-opacity:1;stroke:#000000;stroke-width:0.33442px;stroke-linecap:butt;stroke-linejoin:miter;stroke-opacity:1"
       d="m -4.4745983,135.95321 -0.71027,1.23628 -0.4238,1.16986 2.09704,0.2663 1.08625,-0.5515 v -1.08935 l -0.16068,-0.48226 -0.94844,-0.34554 z"
       id="path117518" /><path
       style="opacity:1;fill:#796254;fill-opacity:1;stroke:#000000;stroke-width:0.33442px;stroke-linecap:butt;stroke-linejoin:miter;stroke-opacity:1"
       d="m 116.34961,131.36222 -2.53813,4.83982 -0.44393,3.65012 2.14481,5.53404 3.70241,3.21321 5.52314,1.57362 4.84761,-0.54265 5.71208,-2.23576 2.4132,-5.08033 1.0464,-4.68149 -1.25011,-2.61083 -1.61119,-3.24324 -2.90072,-1.82638 -4.23122,-1.8181 z"
       id="path117520" /><path
       style="opacity:1;fill:#151112;fill-opacity:1;stroke:#000000;stroke-width:0.33442px;stroke-linecap:butt;stroke-linejoin:miter;stroke-opacity:1"
       d="m 123.55219,133.63264 h -3.55837 l -1.28296,4.58759 0.88744,3.60578 3.13926,2.24006 4.39244,-0.18255 4.65569,-2.74082 v -4.57689 l -0.81317,-2.93317 -3.49347,-1.08635 z"
       id="path117522" /><path
       style="opacity:1;fill:#dbc9c1;fill-opacity:1;stroke:#000000;stroke-width:0.33442px;stroke-linecap:butt;stroke-linejoin:miter;stroke-opacity:1"
       d="m 123.55219,133.63264 1.18572,2.37848 -2.65097,0.91289 -2.7346,-0.99759 0.64148,-2.29378 z"
       id="path117524" /><path
       style="opacity:1;fill:#dbc9c1;fill-opacity:1;stroke:#000000;stroke-width:0.33442px;stroke-linecap:butt;stroke-linejoin:miter;stroke-opacity:1"
       d="m 125.51561,133.08946 -0.7777,2.92166 2.78998,-0.16183 c 0,0 1.78933,0.0458 1.83201,-0.0757 0.0428,-0.12166 -0.0235,-1.65416 -0.0235,-1.65416 l -0.94682,-0.64967 h -2.04694 z"
       id="path117526" /></g></svg>
